Coordinates
version=1
nRows=6
nColumns=36
inDegrees=yes

Units are S.I. units (second, meters, Newtons, ...)
If the header above contains a line with 'inDegrees', this indicates whether rotational values are in degrees (yes) or radians (no).

endheader
time	pelvis_tilt	pelvis_list	pelvis_rotation	pelvis_tx	pelvis_ty	pelvis_tz	hip_flexion_r	hip_adduction_r	hip_rotation_r	knee_angle_r	knee_angle_r_beta	ankle_angle_r	subtalar_angle_r	mtp_angle_r	hip_flexion_l	hip_adduction_l	hip_rotation_l	knee_angle_l	knee_angle_l_beta	ankle_angle_l	subtalar_angle_l	mtp_angle_l	lumbar_extension	lumbar_bending	lumbar_rotation	arm_flex_r	arm_add_r	arm_rot_r	elbow_flex_r	pro_sup_r	arm_flex_l	arm_add_l	arm_rot_l	elbow_flex_l	pro_sup_l
      2.45833330	    -11.48806274	     -1.93790258	      3.25956648	     -0.06120307	      1.03727686	     -0.04921209	     35.71865898	     -7.55619894	     -5.05604125	     11.75882295	      0.20523018	    -23.75873376	      5.01305737	     -7.49999987	     37.73503074	     -6.51933160	     -3.83894640	     19.29815005	      0.33681626	     -4.02339061	     -4.82480163	     -7.49999987	    -19.83919545	      0.26220817	      0.79651823	    -38.50214702	    -48.98298551	    -27.85693696	    117.46680102	     81.30976428	    -77.91556161	    -53.57601629	    -84.27273793	    128.57078673	     76.84157809
      2.46250000	    -11.50771658	     -1.91049372	      3.48719432	     -0.05340673	      1.02598395	     -0.04974722	     35.96640590	     -7.84032527	     -5.32185101	     12.19085242	      0.21277051	    -23.41616800	      4.37644958	     -7.49999987	     37.96966041	     -6.38689874	     -4.28937154	     18.71892732	      0.32670691	     -3.31948229	     -5.07325809	     -7.49999987	    -19.98204875	      0.17722237	      0.57258841	    -39.42961565	    -48.50841345	    -28.24837200	    117.97033318	     80.49229739	    -78.47374887	    -51.55924226	    -84.57159712	    129.88987164	     76.65468706
      2.46666670	    -11.36405227	     -1.84004704	      3.64450298	     -0.05019636	      1.01543983	     -0.04743272	     36.27141671	     -8.05134892	     -5.45555023	     12.86038993	      0.22445615	    -23.03896983	      3.98503208	     -7.49999987	     38.21133560	     -6.34301742	     -4.74667931	     18.35559720	      0.32036561	     -2.77424769	     -5.40294381	     -7.49999987	    -20.12675971	      0.05889638	      0.46537929	    -40.03095444	    -48.07359825	    -28.30193428	    118.44984317	     80.48963919	    -78.92836172	    -50.44703746	    -84.16669772	    130.67501855	     76.81646567
      2.47083330	    -11.47009682	     -1.84224941	      3.79909359	     -0.04404528	      1.00805065	     -0.04702538	     36.86816270	     -8.15036301	     -5.31229185	     13.63353876	      0.23795014	    -23.03891121	      3.36158894	     -7.49999987	     38.82931220	     -6.35612016	     -5.15968759	     18.20555920	      0.31774695	     -2.74809097	     -5.89824085	     -7.49999987	    -20.34976917	      0.06536431	      0.36426748	    -40.68944764	    -47.26182995	    -28.86515911	    119.17583115	     80.24387453	    -78.74165626	    -48.40651023	    -83.81279636	    132.08182849	     77.12582903
      2.47500000	    -11.40722347	     -1.76220614	      3.97836356	     -0.03631210	      0.99561278	     -0.04870994	     37.20659572	     -8.42638231	     -5.58904035	     14.34445464	      0.25035796	    -22.89888900	      2.76697093	     -7.49999987	     39.18378078	     -6.20102781	     -5.66757868	     18.02041475	      0.31451557	     -2.42670531	     -6.55506160	     -7.49999987	    -20.42660930	      0.07032671	      0.21396731	    -41.18278410	    -46.83679252	    -29.13943254	    119.55482262	     80.22230222	    -78.33457393	    -47.24574272	    -82.85028963	    132.85345818	     77.62187995
      2.47916670	    -11.32842804	     -1.71867088	      4.18690654	     -0.03100309	      0.98618502	     -0.04778484	     37.45044931	     -8.65728945	     -6.00149979	     14.92232773	      0.26044375	    -22.90259337	      2.13954806	     -7.49999987	     39.39170495	     -6.00467915	     -5.90627985	     17.62157454	      0.30755450	     -1.86241526	     -6.75384307	     -7.49999987	    -20.49400472	      0.01451665	      0.31857756	    -41.64396312	    -46.32132591	    -29.06375734	    119.62745261	     80.34632723	    -78.17106770	    -46.48998096	    -81.93425445	    134.05049837	     77.97202705
